<svg width="1024" height="1024" viewBox="0 0 1024 1024" fill="none" xmlns="http://www.w3.org/2000/svg">
<path d="M74.0021 52C167.392 52 260.782 52 357.002 52C357.002 167.5 357.002 283 357.002 402C383.105 383.929 405.582 363.941 424.002 338C424.432 337.395 424.862 336.789 425.306 336.166C452.587 297.374 468.722 252.82 483.002 208C483.208 207.354 483.414 206.708 483.626 206.042C492.001 179.702 499 152.897 505.408 126.016C505.687 124.848 505.687 124.848 505.972 123.657C506.842 120.003 507.701 116.347 508.541 112.686C508.839 111.417 509.137 110.148 509.443 108.84C509.698 107.73 509.953 106.62 510.215 105.476C510.475 104.659 510.735 103.842 511.002 103C511.662 102.67 512.322 102.34 513.002 102C513.269 103.086 513.269 103.086 513.542 104.194C525.311 152.857 525.311 152.857 539.002 201C539.258 201.824 539.514 202.648 539.777 203.498C556.04 255.713 575.018 308.114 610.002 351C610.682 351.834 610.682 351.834 611.375 352.685C625.778 370.215 641.975 384.536 660.346 397.792C662.245 399.177 664.122 400.59 666.002 402C666.497 228.75 666.497 228.75 667.002 52C760.392 52 853.782 52 950.002 52C950.123 188.731 950.123 188.731 950.147 241.287C950.153 255.028 950.159 268.769 950.166 282.51C950.166 284.172 950.167 285.833 950.168 287.495C950.181 313.916 950.203 340.337 950.231 366.758C950.259 393.947 950.278 421.135 950.284 448.324C950.285 452.177 950.286 456.031 950.287 459.884C950.287 460.643 950.287 461.401 950.287 462.182C950.291 474.315 950.305 486.448 950.323 498.581C950.34 510.823 950.347 523.065 950.343 535.307C950.341 541.922 950.343 548.537 950.36 555.152C950.485 608.67 947.262 660.598 931.002 712C930.711 712.925 930.419 713.849 930.119 714.802C919.981 746.277 904.564 777.044 884.002 803C883.177 804.088 882.354 805.178 881.533 806.27C874.316 815.779 866.307 824.435 858.002 833C857.252 833.775 857.252 833.775 856.487 834.565C851.216 839.987 845.803 845.15 840.002 850C839.49 850.436 838.979 850.872 838.451 851.322C822.489 864.893 805.131 876.531 787.002 887C785.951 887.638 784.901 888.276 783.818 888.934C719.668 927.208 641.481 940.562 568.048 945.852C566.081 945.994 564.115 946.144 562.149 946.294C546.175 947.412 530.132 947.245 514.127 947.25C513.342 947.251 512.556 947.251 511.747 947.252C485.396 947.266 459.241 946.628 433.002 944C432.26 943.927 431.519 943.855 430.755 943.78C400.486 940.802 370.423 935.744 341.002 928C340.005 927.741 339.008 927.483 337.981 927.216C293.436 915.569 251.259 897.748 213.002 872C212.326 871.545 211.65 871.091 210.954 870.622C195.503 860.122 181.414 847.973 168.002 835C167.125 834.156 167.125 834.156 166.231 833.295C158.941 826.251 152.254 818.998 146.002 811C145.122 809.909 144.24 808.819 143.358 807.73C121.281 780.349 105.621 749.069 94.0021 716C93.712 715.175 93.422 714.351 93.1232 713.501C75.5708 662.773 73.5249 610.128 73.6539 557.048C73.6656 550.951 73.663 544.855 73.6608 538.759C73.6569 526.318 73.6668 513.877 73.6849 501.436C73.7027 489.144 73.7142 476.853 73.7174 464.561C73.7176 463.793 73.7178 463.024 73.7181 462.232C73.7191 458.329 73.72 454.425 73.7208 450.521C73.7271 422.976 73.7473 395.431 73.7757 367.886C73.8034 341.151 73.8245 314.416 73.8373 287.681C73.8381 285.996 73.8389 284.31 73.8397 282.625C73.8463 268.926 73.8524 255.228 73.8584 241.529C73.8865 178.353 73.9467 115.177 74.0021 52ZM357.002 567C356.455 589.187 358.015 610.567 364.002 632C364.326 633.178 364.649 634.356 364.983 635.57C372.095 658.935 384.165 678.553 401.002 696C402.035 697.11 402.035 697.11 403.088 698.242C420.435 716.439 446.434 727.823 471.002 732C471.992 731.67 472.982 731.34 474.002 731C466.108 709.373 457.429 688.531 447.002 668C446.204 666.387 445.407 664.774 444.611 663.16C425.84 625.733 395.117 588.863 359.002 567C358.342 567 357.682 567 357.002 567ZM658.002 572C657.323 572.505 656.644 573.009 655.944 573.53C645.741 581.145 636.226 589.235 627.002 598C626.173 598.786 625.344 599.573 624.49 600.383C618.842 605.884 613.91 611.838 609.002 618C608.368 618.755 607.734 619.511 607.08 620.289C586.657 644.848 571.938 674.327 560.002 703.75C559.729 704.423 559.455 705.096 559.173 705.79C555.813 714.097 552.718 722.458 550.002 731C577.582 729.496 604.38 713.462 623.002 694C623.806 693.216 624.611 692.433 625.44 691.625C626.285 690.759 627.131 689.892 628.002 689C628.574 688.424 629.147 687.848 629.736 687.254C659.461 655.805 667.503 608.578 667.002 567C663.442 567 660.769 569.929 658.002 572Z" fill="#7ED856"/>
<path d="M512 102C513.736 105.153 514.658 108.186 515.505 111.678C515.928 113.404 515.928 113.404 516.36 115.164C516.661 116.413 516.963 117.662 517.273 118.949C517.596 120.266 517.918 121.583 518.242 122.9C518.93 125.703 519.617 128.506 520.302 131.31C540.267 212.87 563.206 299.123 660.297 397.773C661.753 398.822 663.203 399.879 664.652 400.938C709.619 433.26 764.861 450.014 817.625 464.688C818.378 464.897 819.13 465.106 819.906 465.322C832.465 468.81 845.061 472.14 857.688 475.375C858.485 475.58 859.283 475.785 860.106 475.996C871.04 478.797 882.004 481.452 893 484C890.781 486.219 889.957 486.415 886.977 487.043C886.134 487.226 885.292 487.409 884.424 487.598C883.038 487.89 883.038 487.89 881.625 488.188C864.404 491.958 847.215 496.054 830.305 501.051C827.033 501.99 823.75 502.851 820.454 503.697C786.989 512.311 753.684 523.189 722 537C720.949 537.458 719.897 537.915 718.814 538.387C702.188 545.684 686.074 553.704 670.969 563.82C669 565 669 565 667 565C667 565.66 667 566.32 667 567C664.594 568.766 662.179 570.426 659.688 572.062C647.847 580.033 637.339 589.198 627 599C626.246 599.712 625.492 600.423 624.715 601.156C619.327 606.384 614.681 612.142 610 618C609.364 618.757 608.729 619.513 608.074 620.293C584.44 648.723 569.034 683.017 555.715 717.169C555.051 718.869 554.383 720.568 553.715 722.266C544.826 744.94 537.251 768.111 531.344 791.738C530.316 795.836 529.171 799.883 527.961 803.931C524.413 815.82 521.556 827.87 518.688 839.938C518.35 841.353 518.35 841.353 518.006 842.798C517.359 845.519 516.716 848.242 516.074 850.965C515.782 852.196 515.782 852.197 515.485 853.453C514.51 857.62 513.644 861.766 513 866C512.34 865.67 511.68 865.34 511 865C510.261 862.582 509.645 860.218 509.082 857.758C508.904 857.011 508.726 856.264 508.543 855.495C508.159 853.882 507.78 852.269 507.403 850.655C506.411 846.404 505.39 842.159 504.375 837.914C504.172 837.064 503.97 836.214 503.761 835.338C498.026 811.298 491.329 787.558 484.167 763.909C483.688 762.328 483.211 760.746 482.735 759.164C480.199 750.743 477.532 742.454 474.289 734.271C472.857 730.638 471.506 726.978 470.16 723.312C463.123 704.296 455.181 686.078 446 668C445.202 666.387 444.405 664.774 443.609 663.16C417.768 611.635 373.099 570.514 321.231 546.056C319.663 545.314 318.099 544.562 316.539 543.804C298.778 535.178 280.451 528.347 261.892 521.681C259.241 520.727 256.596 519.761 253.949 518.797C244.195 515.278 234.371 512.314 224.355 509.64C220.077 508.477 215.822 507.231 211.562 506C204.049 503.839 196.514 501.786 188.947 499.824C184.41 498.646 179.895 497.413 175.388 496.127C166.893 493.707 158.351 491.661 149.729 489.745C143.432 488.343 137.191 486.822 131 485C133.668 482.332 135.802 482.204 139.484 481.414C140.136 481.271 140.788 481.128 141.46 480.981C143.555 480.522 145.652 480.073 147.75 479.625C156.81 477.678 165.746 475.588 174.644 472.974C177.89 472.032 181.145 471.161 184.418 470.316C248.293 453.808 316.349 434.52 369.174 393.408C370.874 392.097 372.593 390.817 374.324 389.547C393.692 375.158 410.067 357.622 424 338C424.43 337.395 424.86 336.789 425.304 336.166C452.585 297.374 468.719 252.82 483 208C483.206 207.354 483.412 206.708 483.624 206.042C493.384 175.345 501.249 144.031 508.627 112.686C509.079 110.782 509.079 110.782 509.539 108.84C509.799 107.73 510.059 106.62 510.327 105.476C511 103 511 103 512 102Z" fill="white"/>
</svg>
