<?xml version="1.0" encoding="UTF-8"?>
<svg version="1.1" xmlns="http://www.w3.org/2000/svg" width="1024" height="1024">
<path d="M0 0 C93.39 0 186.78 0 283 0 C283 115.5 283 231 283 350 C309.10265103 331.9289339 331.57986511 311.94051658 350 286 C350.43022461 285.39462402 350.86044922 284.78924805 351.30371094 284.16552734 C378.58456771 245.37389533 394.71946293 200.82030277 409 156 C409.20604858 155.35391785 409.41209717 154.70783569 409.62438965 154.04217529 C417.99910872 127.70194658 424.99831026 100.89718164 431.40625 74.015625 C431.68516335 72.84807426 431.68516335 72.84807426 431.9697113 71.65693665 C432.84031146 68.00315229 433.69933369 64.34722691 434.53930664 60.6862793 C434.83699951 59.41695557 435.13469238 58.14763184 435.44140625 56.83984375 C435.69607666 55.72988037 435.95074707 54.61991699 436.21313477 53.47631836 C436.47280029 52.6591333 436.73246582 51.84194824 437 51 C437.66 50.67 438.32 50.34 439 50 C439.26736465 51.0861132 439.26736465 51.0861132 439.54013062 52.19416809 C451.30937129 100.85747833 451.30937129 100.85747833 465 149 C465.25589905 149.82423462 465.5117981 150.64846924 465.77545166 151.49768066 C482.03765669 203.71342921 501.01579573 256.11400901 536 299 C536.6796582 299.834104 536.6796582 299.834104 537.37304688 300.68505859 C551.77636034 318.21501726 567.97336754 332.53602029 586.34350586 345.79248047 C588.24244545 347.17673327 590.12006342 348.59004757 592 350 C592.495 176.75 592.495 176.75 593 0 C686.39 0 779.78 0 876 0 C876.12113593 136.73105637 876.12113593 136.73105637 876.14449489 189.28725338 C876.1506176 203.0280986 876.15688087 216.76894374 876.16357798 230.50978869 C876.16438752 232.17154064 876.16519264 233.83329258 876.16599327 235.49504453 C876.17875951 261.91605397 876.20124492 288.33704396 876.22889166 314.75804168 C876.2572895 341.94666502 876.2756794 369.13527765 876.28174497 396.32391557 C876.28260924 400.17738224 876.28358615 404.03084887 876.28463173 407.88431549 C876.284834 408.64262103 876.28503627 409.40092656 876.28524467 410.18221105 C876.2887691 422.31501833 876.30262667 434.44779211 876.3204961 446.58058581 C876.33830086 458.82284248 876.34486863 471.06506646 876.34050413 483.30733559 C876.33844433 489.92229541 876.34134384 496.5371785 876.35761642 503.15212631 C876.48263275 556.67018428 873.26041693 608.59761118 857 660 C856.70851074 660.92474121 856.41702148 661.84948242 856.11669922 662.80224609 C845.97865575 694.27739622 830.56198826 725.04410989 810 751 C809.17502486 752.08828638 808.35220428 753.17820851 807.53125 754.26953125 C800.31413795 763.7787733 792.30489271 772.43543318 784 781 C783.25024902 781.774646 783.25024902 781.774646 782.48535156 782.56494141 C777.21400225 787.98695384 771.80073321 793.15036104 766 798 C765.48824219 798.43618652 764.97648438 798.87237305 764.44921875 799.32177734 C748.48664987 812.89266336 731.12857769 824.53079842 713 835 C711.94941406 835.63808594 710.89882813 836.27617188 709.81640625 836.93359375 C645.66575028 875.20835488 567.4789135 888.56186227 494.04638672 893.85211182 C492.07936332 893.99426458 490.11290605 894.14418622 488.14648438 894.29443359 C472.17250337 895.41206061 456.12991178 895.24450226 440.125 895.25 C439.33953545 895.25058914 438.55407089 895.25117828 437.74480438 895.25178528 C411.39361502 895.26571408 385.2391797 894.62828319 359 892 C358.25838623 891.92738953 357.51677246 891.85477905 356.75268555 891.77996826 C326.48432175 888.8023284 296.42089326 883.74438216 267 876 C266.00307129 875.74138184 265.00614258 875.48276367 263.97900391 875.21630859 C219.4337632 863.5688644 177.25653579 845.74821511 139 820 C138.32404785 819.5452832 137.6480957 819.09056641 136.95166016 818.62207031 C121.50051339 808.12223122 107.41144767 795.97256746 94 783 C93.12335693 782.15622803 93.12335693 782.15622803 92.22900391 781.29541016 C84.93922972 774.25101406 78.25196473 766.99771404 72 759 C71.11992309 757.90899833 70.23834233 756.8192085 69.35546875 755.73046875 C47.27938608 728.34928095 31.61912176 697.06893183 20 664 C19.70996094 663.17532227 19.41992188 662.35064453 19.12109375 661.50097656 C1.5687714 610.77306909 -0.47711441 558.12849186 -0.34819686 505.04786658 C-0.33642551 498.95142868 -0.33909179 492.85500987 -0.34124239 486.75856381 C-0.3451492 474.31777003 -0.33529444 461.87702468 -0.31719017 449.43624496 C-0.2993492 437.14448683 -0.28787435 424.85274893 -0.28463173 412.56097794 C-0.28442551 411.79250627 -0.28421929 411.02403461 -0.28400682 410.23227593 C-0.28299162 406.32851557 -0.28208754 402.42475519 -0.2812262 398.5209948 C-0.27494952 370.97605969 -0.2548066 343.43115083 -0.22631836 315.88623047 C-0.19869996 289.1512058 -0.17753197 262.41618841 -0.16479492 235.68115234 C-0.163983 233.99567783 -0.16317088 232.31020331 -0.16235858 230.6247288 C-0.15579086 216.92630731 -0.14966368 203.22788562 -0.14364313 189.52946387 C-0.11556008 126.35295103 -0.05532811 63.17650682 0 0 Z M283 515 C282.45269679 537.18683 284.01340097 558.56676829 290 580 C290.32355469 581.17820312 290.64710938 582.35640625 290.98046875 583.5703125 C298.09271069 606.93543947 310.16315051 626.55275114 327 644 C328.03253906 645.10988281 328.03253906 645.10988281 329.0859375 646.2421875 C346.43300053 664.4389026 372.43231856 675.82349415 397 680 C397.99 679.67 398.98 679.34 400 679 C392.10636605 657.37287168 383.42680517 636.53068565 373 616 C372.20209299 614.38722892 371.40509558 612.77400721 370.609375 611.16015625 C351.83829759 573.73331863 321.11468402 536.86281491 285 515 C284.34 515 283.68 515 283 515 Z M584 520 C583.3208252 520.50474854 582.64165039 521.00949707 581.94189453 521.52954102 C571.73938319 529.14452902 562.22373743 537.23519975 553 546 C552.17113281 546.78632812 551.34226562 547.57265625 550.48828125 548.3828125 C544.83954539 553.88367569 539.90809368 559.83840038 535 566 C534.36578125 566.75539063 533.7315625 567.51078125 533.078125 568.2890625 C512.65478708 592.84770438 497.93548639 622.32739021 486 651.75 C485.72650726 652.4231424 485.45301453 653.09628479 485.17123413 653.78982544 C481.81090144 662.09709228 478.71558656 670.45788285 476 679 C503.58041983 677.49561346 530.37762555 661.46211017 549 642 C549.804375 641.21625 550.60875 640.4325 551.4375 639.625 C552.283125 638.75875 553.12875 637.8925 554 637 C554.57234375 636.42378906 555.1446875 635.84757813 555.734375 635.25390625 C585.45911999 603.80512605 593.50110331 556.57765535 593 515 C589.44031517 515 586.76731004 517.92907897 584 520 Z " fill="#7ED856" transform="translate(74,52)"/>
<path d="M0 0 C1.73619516 3.15284501 2.65828976 6.18583654 3.50537109 9.6784668 C3.92825409 11.40380646 3.92825409 11.40380646 4.35968018 13.16400146 C4.66122009 14.41312317 4.96276001 15.66224487 5.2734375 16.94921875 C5.59563712 18.26636568 5.91846535 19.58335898 6.24188232 20.90020752 C6.9300892 23.70293889 7.61654378 26.5060902 8.30181885 29.30953979 C28.26702288 110.86961021 51.20618983 197.12335212 148.29736328 295.7734375 C149.75326859 296.82225715 151.20340805 297.87907274 152.65234375 298.9375 C197.61924521 331.25979855 252.86077262 348.01426674 305.625 362.6875 C306.37770172 362.8969928 307.13040344 363.1064856 307.90591431 363.32232666 C320.46474341 366.81028151 333.0614002 370.1395178 345.6875 373.375 C346.48544983 373.57983002 347.28339966 373.78466003 348.10552979 373.99569702 C359.04002257 376.79740803 370.00360081 379.45236262 381 382 C378.78145689 384.21854311 377.95714989 384.41494215 374.9765625 385.04296875 C374.13416016 385.22609619 373.29175781 385.40922363 372.42382812 385.59790039 C371.0384082 385.8897522 371.0384082 385.8897522 369.625 386.1875 C352.40437124 389.95775655 335.21461541 394.05370779 318.3046875 399.05078125 C315.03337298 399.99041414 311.74993971 400.8507618 308.45361328 401.69702148 C274.9892662 410.31082779 241.68405842 421.18861965 210 435 C208.9486084 435.45761719 207.8972168 435.91523437 206.81396484 436.38671875 C190.18830046 443.68392137 174.07388882 451.70359916 158.96875 461.8203125 C157 463 157 463 155 463 C155 463.66 155 464.32 155 465 C152.59396548 466.76603537 150.17938751 468.42567466 147.6875 470.0625 C135.84677968 478.03314215 125.33915056 487.19799377 115 497 C114.24589844 497.7115625 113.49179687 498.423125 112.71484375 499.15625 C107.32687479 504.38354394 102.68134261 510.14210757 98 516 C97.36449219 516.75667969 96.72898437 517.51335938 96.07421875 518.29296875 C72.43995178 546.72259423 57.03441499 581.01664378 43.71484375 615.16864014 C43.05114912 616.86896094 42.38317421 618.5676093 41.71484375 620.26611328 C32.82580199 642.93977055 25.25057592 666.11097756 19.34375 689.73828125 C18.31567786 693.83645609 17.17130677 697.88349061 15.96069336 701.9309082 C12.41278303 713.82024702 9.55598141 725.87037241 6.6875 737.9375 C6.35026917 739.35320786 6.35026917 739.35320786 6.00622559 740.79751587 C5.35918931 743.519252 4.71580229 746.24181756 4.07421875 748.96484375 C3.78241982 750.19649765 3.78241982 750.19649765 3.48472595 751.45303345 C2.50954831 755.62011838 1.64397574 759.76555173 1 764 C0.34 763.67 -0.32 763.34 -1 763 C-1.73913758 760.5824321 -2.3553796 758.21770908 -2.91796875 755.7578125 C-3.09589966 755.01107269 -3.27383057 754.26433289 -3.45715332 753.4949646 C-3.84063704 751.88232535 -4.22044714 750.26880911 -4.59701538 748.65454102 C-5.5893213 744.40366228 -6.60950129 740.15944813 -7.625 735.9140625 C-7.82751877 735.06390564 -8.03003754 734.21374878 -8.23869324 733.33782959 C-13.97418817 709.29772669 -20.67106325 685.55753278 -27.83337402 661.90914917 C-28.3119156 660.32797104 -28.7890933 658.74637936 -29.26477051 657.16433716 C-31.80083545 648.74271086 -34.46815186 640.45393719 -37.71118164 632.27148438 C-39.1425504 628.63815584 -40.4939127 624.97799475 -41.83984375 621.3125 C-48.87739293 602.29566665 -56.81870164 584.07824616 -66 566 C-66.79790701 564.38722892 -67.59490442 562.77400721 -68.390625 561.16015625 C-94.23237354 509.63541394 -138.90147143 468.51393826 -190.76904297 444.05566406 C-192.33726266 443.31359994 -193.90102893 442.56208671 -195.46142578 441.80371094 C-213.221878 433.17842742 -231.54943626 426.34700816 -250.1083374 419.6809082 C-252.75851644 418.7269703 -255.40426103 417.76090898 -258.05078125 416.796875 C-267.80509911 413.27761617 -277.62851933 410.31437742 -287.64453125 407.64013672 C-291.92322706 406.47733195 -296.17809892 405.23122095 -300.4375 404 C-307.95090438 401.83917459 -315.4855368 399.78603783 -323.05322266 397.82421875 C-327.58957973 396.64550261 -332.10522854 395.4126573 -336.61230469 394.12670898 C-345.10685007 391.70710202 -353.6494423 389.66106882 -362.27124023 387.74536133 C-368.5678253 386.34293244 -374.80935686 384.82164858 -381 383 C-378.33225516 380.33225516 -376.19827538 380.20433295 -372.515625 379.4140625 C-371.86358093 379.27100677 -371.21153687 379.12795105 -370.53973389 378.9805603 C-368.44461062 378.52168523 -366.34756227 378.07258284 -364.25 377.625 C-355.18967661 375.67843775 -346.25353654 373.58842142 -337.35595703 370.97363281 C-334.10997069 370.03190478 -330.85461107 369.16058932 -327.58203125 368.31640625 C-263.70707668 351.80795928 -195.65063668 332.51985593 -142.82568359 291.40820312 C-141.12551253 290.09681148 -139.40724856 288.81651379 -137.67578125 287.546875 C-118.30763017 273.15774431 -101.93316468 255.62165269 -88 236 C-87.56977539 235.39462402 -87.13955078 234.78924805 -86.69628906 234.16552734 C-59.41543229 195.37389533 -43.28053707 150.82030277 -29 106 C-28.79395142 105.35391785 -28.58790283 104.70783569 -28.37561035 104.04217529 C-18.61552199 73.34467278 -10.75144449 42.03143063 -3.37280273 10.6862793 C-2.92142944 8.7822937 -2.92142944 8.7822937 -2.4609375 6.83984375 C-2.20103027 5.72988037 -1.94112305 4.61991699 -1.67333984 3.47631836 C-1 1 -1 1 0 0 Z " fill="#F4BE4A" transform="translate(512,102)"/>
</svg>
